<svg xmlns="http://www.w3.org/2000/svg" width="50.373" height="32" viewBox="0 0 50.373 32"><path d="M.043 15.199C.177 6.958 7.758-.261 16 .013c3.949-.183 7.661 1.536 10.685 3.949-1.292 1.466-2.626 2.88-4.056 4.2-3.634-2.51-8.806-3.23-12.444-.327C4.983 11.433 4.747 19.929 9.75 23.8c4.867 4.418 14.063 2.225 15.408-4.535-3.048-.046-6.103 0-9.149-.098-.009-1.821-.017-3.641-.009-5.457 5.093-.016 10.19-.024 15.291.015.308 4.278-.258 8.832-2.888 12.365-3.979 5.602-11.967 7.237-18.201 4.839C3.945 28.544-.486 21.938.043 15.199M41.231 9.119h4.544c.007 1.52.015 3.047.029 4.567 1.519.017 3.053.017 4.568.032v4.544c-1.516.015-3.042.021-4.568.039-.015 1.525-.022 3.05-.029 4.567h-4.557c-.01-1.518-.01-3.042-.027-4.559-1.519-.019-3.047-.033-4.565-.048v-4.544c1.519-.015 3.037-.024 4.565-.032.01-1.527.023-3.046.04-4.566"/></svg>