<svg xmlns="http://www.w3.org/2000/svg" width="32" height="32" viewBox="0 0 32 32"><path d="M4.107 0h23.785A4.12 4.12 0 0 1 32 4.107v23.787A4.12 4.12 0 0 1 27.893 32H4.107A4.12 4.12 0 0 1 0 27.894V4.107A4.118 4.118 0 0 1 4.107 0zm19.205 3.555c-.793 0-1.441.648-1.441 1.44v3.448c0 .793.648 1.441 1.441 1.441h3.616c.792 0 1.441-.648 1.441-1.441V4.995c0-.793-.649-1.44-1.441-1.44h-3.616zm5.071 9.978h-2.817a9.31 9.31 0 0 1 .411 2.745c0 5.323-4.454 9.638-9.946 9.638-5.493 0-9.946-4.314-9.946-9.638 0-.954.144-1.875.411-2.745H3.557V27.05c0 .7.571 1.272 1.271 1.272h22.284c.7 0 1.271-.572 1.271-1.272V13.533zM16.03 9.704c-3.549 0-6.426 2.788-6.426 6.227 0 3.439 2.877 6.228 6.426 6.228s6.427-2.788 6.427-6.228c0-3.439-2.878-6.227-6.427-6.227z"/></svg>