<svg xmlns="http://www.w3.org/2000/svg" width="39.375" height="32" viewBox="0 0 39.375 32"><path d="M39.375 3.787a16.129 16.129 0 0 1-4.641 1.272 8.095 8.095 0 0 0 3.553-4.47 16.16 16.16 0 0 1-5.129 1.961A8.069 8.069 0 0 0 27.262 0a8.077 8.077 0 0 0-8.078 8.078c0 .634.07 1.25.209 1.842-6.715-.337-12.667-3.553-16.652-8.441A8.044 8.044 0 0 0 1.647 5.54a8.076 8.076 0 0 0 3.594 6.725 8.043 8.043 0 0 1-3.659-1.012v.102a8.084 8.084 0 0 0 6.48 7.922 8.12 8.12 0 0 1-3.649.138 8.086 8.086 0 0 0 7.546 5.61 16.21 16.21 0 0 1-10.032 3.458c-.652 0-1.296-.038-1.928-.113A22.878 22.878 0 0 0 12.385 32c14.859 0 22.984-12.31 22.984-22.985 0-.351-.008-.699-.023-1.045a16.487 16.487 0 0 0 4.029-4.183z"/></svg>